# xmcd CD database file
#
# Track frame offsets:
#	150
#	19150
#	39332
#	58457
#	75625
#	91052
#	107992
#	126627
#	147350
#	170045
#	188600
#	205307
#	222275
#	240587
#	260809
#
# Disc length: 3740 seconds
#
# Revision: 0
# Processed by: cddbd v1.5PL3 Copyright (c) Steve Scherf et al.
# Submitted via: cdripper 1.0.7
#
DISCID=e20e9a0f
DTITLE=Carl Henry - Solution RNB
DYEAR=2002
DGENRE=Jazz
TTITLE0=Sans lendemain
TTITLE1=Nuit de gel
TTITLE2=Croyais-tu vraiment
TTITLE3=Sans souci
TTITLE4=Reste toi meme
TTITLE5=Viens me decouvrir
TTITLE6=Je serais tout
TTITLE7=De seconde en seconde
TTITLE8=Paroles de nuit
TTITLE9=Vivre ma vie (Avec Mega)
TTITLE10=Non, c'est pas comme ca
TTITLE11=Superman
TTITLE12=Ne me dit pas adieu
TTITLE13=J'ai besoin de toi
TTITLE14=Sans lendemain (Avec JR)
EXTD=YEAR: 2002
EXTT0=
EXTT1=
EXTT2=
EXTT3=
EXTT4=
EXTT5=
EXTT6=
EXTT7=
EXTT8=
EXTT9=
EXTT10=
EXTT11=
EXTT12=
EXTT13=
EXTT14=
PLAYORDER=
